<svg width="1145" height="741" viewBox="0 0 1145 741" fill="none" xmlns="http://www.w3.org/2000/svg">
<g clip-path="url(#clip0_16_36)">
<path d="M1123.13 718.031C1123.13 718.901 1122.78 719.736 1122.17 720.351C1121.55 720.967 1120.72 721.312 1119.85 721.312C1118.98 721.312 1118.14 720.967 1117.53 720.351C1116.91 719.736 1116.57 718.901 1116.57 718.031C1116.57 717.161 1116.91 716.326 1117.53 715.711C1118.14 715.096 1118.98 714.75 1119.85 714.75C1120.72 714.75 1121.55 715.096 1122.17 715.711C1122.78 716.326 1123.13 717.161 1123.13 718.031Z" fill="#676767"/>
<path d="M1113.28 710.375C1112.41 710.375 1111.58 710.721 1110.96 711.336C1110.35 711.951 1110 712.786 1110 713.656V733.344C1110 734.214 1110.35 735.049 1110.96 735.664C1111.58 736.279 1112.41 736.625 1113.28 736.625H1141.72C1142.59 736.625 1143.42 736.279 1144.04 735.664C1144.65 735.049 1145 734.214 1145 733.344V713.656C1145 712.786 1144.65 711.951 1144.04 711.336C1143.42 710.721 1142.59 710.375 1141.72 710.375H1113.28ZM1141.72 712.562C1142.01 712.562 1142.29 712.678 1142.49 712.883C1142.7 713.088 1142.81 713.366 1142.81 713.656V726.781L1134.55 722.522C1134.35 722.419 1134.12 722.384 1133.89 722.42C1133.66 722.457 1133.45 722.564 1133.29 722.726L1125.18 730.841L1119.36 726.965C1119.15 726.825 1118.9 726.762 1118.64 726.787C1118.39 726.812 1118.16 726.922 1117.98 727.101L1112.19 732.25V733.431L1112.19 733.344V713.656C1112.19 713.366 1112.3 713.088 1112.51 712.883C1112.71 712.678 1112.99 712.562 1113.28 712.562H1141.72Z" fill="#676767"/>
</g>
<path d="M34.75 690H46.3284C46.9086 690 47.4649 690.231 47.875 690.641L55.9841 698.75C56.3943 699.16 56.6249 699.716 56.625 700.297V712.516L50.6531 706.544C50.4283 706.32 50.1574 706.147 49.8592 706.038C49.561 705.929 49.2427 705.887 48.9263 705.913C48.6099 705.939 48.3031 706.034 48.0271 706.191C47.7511 706.348 47.5126 706.563 47.3281 706.822L43.1959 712.606L39.3263 710.283C38.9079 710.031 38.4176 709.927 37.9332 709.986C37.4488 710.046 36.9982 710.266 36.6531 710.611L30.375 716.889V694.375C30.375 693.215 30.8359 692.102 31.6564 691.281C32.4769 690.461 33.5897 690 34.75 690ZM46.7812 693.281V697.656C46.7812 698.236 47.0117 698.793 47.422 699.203C47.8322 699.613 48.3886 699.844 48.9688 699.844H53.3438L46.7812 693.281ZM43.5044 702.031C43.5044 701.161 43.1587 700.326 42.5433 699.711C41.928 699.096 41.0934 698.75 40.2231 698.75C39.3529 698.75 38.5183 699.096 37.9029 699.711C37.2876 700.326 36.9419 701.161 36.9419 702.031C36.9419 702.901 37.2876 703.736 37.9029 704.351C38.5183 704.967 39.3529 705.312 40.2231 705.312C41.0934 705.312 41.928 704.967 42.5433 704.351C43.1587 703.736 43.5044 702.901 43.5044 702.031Z" fill="#676767"/>
<path d="M49.1088 708.091L56.625 715.611V720.625C56.625 721.785 56.1641 722.898 55.3436 723.719C54.5231 724.539 53.4103 725 52.25 725H34.75C33.5897 725 32.4769 724.539 31.6564 723.719C30.8359 722.898 30.375 721.785 30.375 720.625V719.984L38.2019 712.159L43.8019 715.519L49.1088 708.091Z" fill="#676767"/>
<path d="M80.625 281.625V260.844L70.7812 251H58.75C57.5897 251 56.4769 251.461 55.6564 252.281C54.8359 253.102 54.375 254.215 54.375 255.375V281.625C54.375 282.785 54.8359 283.898 55.6564 284.719C56.4769 285.539 57.5897 286 58.75 286H76.25C77.4103 286 78.5231 285.539 79.3436 284.719C80.1641 283.898 80.625 282.785 80.625 281.625ZM70.7812 257.562C70.7812 258.433 71.127 259.267 71.7423 259.883C72.3577 260.498 73.1923 260.844 74.0625 260.844H78.4375V281.625C78.4375 282.205 78.207 282.762 77.7968 283.172C77.3866 283.582 76.8302 283.812 76.25 283.812H58.75C58.1698 283.812 57.6134 283.582 57.2032 283.172C56.793 282.762 56.5625 282.205 56.5625 281.625V255.375C56.5625 254.795 56.793 254.238 57.2032 253.828C57.6134 253.418 58.1698 253.188 58.75 253.188H70.7812V257.562Z" fill="#676767"/>
<path d="M60.069 281.815C59.6414 281.647 59.2972 281.317 59.1109 280.897C58.6843 280.048 58.8265 279.199 59.2859 278.486C59.719 277.814 60.4365 277.243 61.2481 276.764C62.2762 276.182 63.3628 275.709 64.49 275.353C65.3639 273.779 66.1397 272.152 66.8131 270.482C66.4118 269.569 66.0969 268.621 65.8725 267.649C65.6843 266.774 65.6122 265.908 65.7718 265.164C65.9359 264.39 66.3712 263.694 67.1937 263.364C67.6137 263.195 68.0687 263.101 68.5106 263.195C68.7329 263.243 68.9418 263.339 69.1223 263.477C69.3028 263.615 69.4503 263.792 69.554 263.994C69.7465 264.353 69.8165 264.773 69.8318 265.171C69.8472 265.582 69.8056 266.037 69.729 266.514C69.5453 267.629 69.1384 268.994 68.5915 270.438C69.1955 271.729 69.9129 272.963 70.7353 274.126C71.709 274.05 72.6882 274.087 73.6534 274.236C74.4497 274.38 75.259 274.662 75.7534 275.253C76.0159 275.568 76.1756 275.953 76.1909 276.386C76.2062 276.806 76.0881 277.222 75.889 277.618C75.7166 277.984 75.4493 278.299 75.1147 278.528C74.7837 278.743 74.3934 278.848 73.999 278.829C73.275 278.799 72.5684 278.401 71.9581 277.917C71.2158 277.304 70.5471 276.606 69.9653 275.839C68.4861 276.007 67.0244 276.305 65.5968 276.727C64.9432 277.886 64.1971 278.991 63.3656 280.03C62.7268 280.796 62.0334 281.465 61.3378 281.752C60.9377 281.931 60.485 281.954 60.069 281.815ZM63.0856 277.657C62.721 277.825 62.3863 277.998 62.0815 278.178C61.364 278.602 60.8981 279.015 60.6662 279.374C60.4606 279.691 60.4562 279.921 60.5787 280.164C60.6021 280.21 60.621 280.243 60.6356 280.26L60.7122 280.234C61.0118 280.111 61.4887 279.72 62.1012 278.983C62.45 278.556 62.7785 278.114 63.0856 277.657ZM66.6731 274.748C67.4037 274.578 68.1407 274.437 68.8825 274.325C68.4847 273.715 68.1125 273.089 67.7668 272.448C67.4235 273.224 67.0588 273.99 66.6731 274.745V274.748ZM72.0237 275.732C72.3533 276.089 72.6705 276.388 72.9753 276.629C73.5003 277.044 73.8656 277.182 74.0647 277.189C74.118 277.197 74.1725 277.185 74.2178 277.156C74.3093 277.085 74.3803 276.99 74.4234 276.883C74.5009 276.749 74.5451 276.599 74.5525 276.445C74.5502 276.394 74.5301 276.345 74.4956 276.307C74.3818 276.172 74.0581 275.975 73.3625 275.85C72.9199 275.777 72.4723 275.738 72.0237 275.734V275.732ZM67.6706 268.063C67.8531 267.468 67.9992 266.863 68.1081 266.251C68.1752 265.84 68.2029 265.501 68.1912 265.234C68.1924 265.087 68.1687 264.94 68.1212 264.801C68.0117 264.814 67.9047 264.843 67.804 264.888C67.6137 264.965 67.4584 265.12 67.3753 265.508C67.2878 265.928 67.3097 266.533 67.4759 267.306C67.5284 267.549 67.594 267.801 67.6728 268.063H67.6706Z" fill="#676767"/>
<path d="M1071.06 295.525C1071.06 295.192 1070.99 294.864 1070.84 294.566C1070.69 294.267 1070.48 294.005 1070.22 293.801C1069.96 293.596 1069.65 293.454 1069.33 293.385C1069 293.316 1068.67 293.322 1068.34 293.403L1066.16 293.95C1065.68 294.069 1065.26 294.342 1064.96 294.726C1064.66 295.111 1064.5 295.584 1064.5 296.072V305.491C1063.81 305.205 1063.06 305.06 1062.31 305.063C1061.22 305.063 1060.18 305.356 1059.39 305.887C1058.6 306.412 1057.94 307.261 1057.94 308.344C1057.94 309.427 1058.6 310.275 1059.39 310.8C1060.18 311.332 1061.22 311.625 1062.31 311.625C1063.4 311.625 1064.44 311.332 1065.24 310.8C1066.03 310.275 1066.69 309.427 1066.69 308.344V300.447L1071.06 299.353V295.525Z" fill="#676767"/>
<path d="M1077.62 311.625V290.844L1067.78 281H1055.75C1054.59 281 1053.48 281.461 1052.66 282.281C1051.84 283.102 1051.38 284.215 1051.38 285.375V311.625C1051.38 312.785 1051.84 313.898 1052.66 314.719C1053.48 315.539 1054.59 316 1055.75 316H1073.25C1074.41 316 1075.52 315.539 1076.34 314.719C1077.16 313.898 1077.62 312.785 1077.62 311.625ZM1067.78 287.562C1067.78 288.433 1068.13 289.267 1068.74 289.883C1069.36 290.498 1070.19 290.844 1071.06 290.844H1075.44V311.625C1075.44 312.205 1075.21 312.762 1074.8 313.172C1074.39 313.582 1073.83 313.812 1073.25 313.812H1055.75C1055.17 313.812 1054.61 313.582 1054.2 313.172C1053.79 312.762 1053.56 312.205 1053.56 311.625V285.375C1053.56 284.795 1053.79 284.238 1054.2 283.828C1054.61 283.418 1055.17 283.188 1055.75 283.188H1067.78V287.562Z" fill="#676767"/>
<path d="M205.125 187.057V196.318C205.125 196.512 205.176 196.702 205.274 196.869C205.371 197.036 205.511 197.175 205.679 197.27C205.848 197.366 206.039 197.415 206.232 197.412C206.426 197.41 206.615 197.356 206.781 197.257L214.498 192.626C214.661 192.529 214.795 192.391 214.888 192.227C214.981 192.062 215.03 191.877 215.03 191.687C215.03 191.498 214.981 191.313 214.888 191.148C214.795 190.984 214.661 190.846 214.498 190.749L206.781 186.118C206.615 186.019 206.425 185.965 206.231 185.963C206.038 185.96 205.847 186.01 205.679 186.105C205.51 186.201 205.37 186.34 205.273 186.507C205.176 186.675 205.125 186.863 205.125 187.057Z" fill="#676767"/>
<path d="M222.625 202.625V181.844L212.781 172H200.75C199.59 172 198.477 172.461 197.656 173.281C196.836 174.102 196.375 175.215 196.375 176.375V202.625C196.375 203.785 196.836 204.898 197.656 205.719C198.477 206.539 199.59 207 200.75 207H218.25C219.41 207 220.523 206.539 221.344 205.719C222.164 204.898 222.625 203.785 222.625 202.625ZM212.781 178.562C212.781 179.433 213.127 180.267 213.742 180.883C214.358 181.498 215.192 181.844 216.062 181.844H220.438V202.625C220.438 203.205 220.207 203.762 219.797 204.172C219.387 204.582 218.83 204.812 218.25 204.812H200.75C200.17 204.812 199.613 204.582 199.203 204.172C198.793 203.762 198.562 203.205 198.562 202.625V176.375C198.562 175.795 198.793 175.238 199.203 174.828C199.613 174.418 200.17 174.188 200.75 174.188H212.781V178.562Z" fill="#676767"/>
<path d="M815.998 314.048C815.966 313.906 815.906 313.771 815.822 313.653C815.737 313.534 815.629 313.433 815.505 313.357C815.381 313.28 815.243 313.229 815.099 313.207C814.955 313.185 814.808 313.191 814.667 313.227C814.525 313.262 814.392 313.325 814.276 313.413C814.159 313.5 814.061 313.61 813.987 313.736C813.914 313.861 813.866 314.001 813.847 314.145C813.828 314.29 813.838 314.437 813.877 314.577L817.158 327.702C817.217 327.936 817.352 328.145 817.542 328.294C817.732 328.443 817.965 328.526 818.207 328.528C818.449 328.531 818.684 328.453 818.877 328.308C819.07 328.162 819.209 327.957 819.273 327.724L821.5 319.567L823.727 327.726C823.791 327.959 823.93 328.165 824.123 328.31C824.316 328.456 824.551 328.533 824.793 328.531C825.035 328.528 825.269 328.446 825.458 328.296C825.648 328.147 825.783 327.939 825.842 327.704L829.123 314.579C829.186 314.301 829.137 314.008 828.987 313.765C828.837 313.522 828.598 313.347 828.321 313.278C828.044 313.209 827.751 313.251 827.504 313.395C827.258 313.539 827.077 313.774 827.002 314.05L824.735 323.115L822.554 315.12C822.491 314.889 822.353 314.685 822.163 314.54C821.972 314.395 821.739 314.317 821.5 314.317C821.261 314.317 821.028 314.395 820.837 314.54C820.647 314.685 820.509 314.889 820.446 315.12L818.265 323.115L815.998 314.048Z" fill="#676767"/>
<path d="M834.625 329.625V308.844L824.781 299H812.75C811.59 299 810.477 299.461 809.656 300.281C808.836 301.102 808.375 302.215 808.375 303.375V329.625C808.375 330.785 808.836 331.898 809.656 332.719C810.477 333.539 811.59 334 812.75 334H830.25C831.41 334 832.523 333.539 833.344 332.719C834.164 331.898 834.625 330.785 834.625 329.625ZM824.781 305.562C824.781 306.433 825.127 307.267 825.742 307.883C826.358 308.498 827.192 308.844 828.062 308.844H832.438V329.625C832.438 330.205 832.207 330.762 831.797 331.172C831.387 331.582 830.83 331.812 830.25 331.812H812.75C812.17 331.812 811.613 331.582 811.203 331.172C810.793 330.762 810.562 330.205 810.562 329.625V303.375C810.562 302.795 810.793 302.238 811.203 301.828C811.613 301.418 812.17 301.188 812.75 301.188H824.781V305.562Z" fill="#676767"/>
<path d="M324.998 450.048C324.966 449.906 324.906 449.771 324.822 449.653C324.737 449.534 324.629 449.433 324.505 449.357C324.381 449.28 324.243 449.229 324.099 449.207C323.955 449.185 323.808 449.191 323.667 449.227C323.525 449.262 323.392 449.325 323.276 449.413C323.159 449.5 323.061 449.61 322.987 449.736C322.914 449.861 322.866 450.001 322.847 450.145C322.828 450.29 322.838 450.437 322.877 450.577L326.158 463.702C326.217 463.936 326.352 464.145 326.542 464.294C326.732 464.443 326.965 464.526 327.207 464.528C327.449 464.531 327.684 464.453 327.877 464.308C328.07 464.162 328.209 463.957 328.273 463.724L330.5 455.567L332.727 463.726C332.791 463.959 332.93 464.165 333.123 464.31C333.316 464.456 333.551 464.533 333.793 464.531C334.035 464.528 334.269 464.446 334.458 464.296C334.648 464.147 334.783 463.939 334.842 463.704L338.123 450.579C338.186 450.301 338.137 450.008 337.987 449.765C337.837 449.522 337.598 449.347 337.321 449.278C337.044 449.209 336.751 449.251 336.504 449.395C336.258 449.539 336.077 449.774 336.002 450.05L333.735 459.115L331.554 451.12C331.491 450.889 331.353 450.685 331.163 450.54C330.972 450.395 330.739 450.317 330.5 450.317C330.261 450.317 330.028 450.395 329.837 450.54C329.647 450.685 329.509 450.889 329.446 451.12L327.265 459.115L324.998 450.048Z" fill="#676767"/>
<path d="M343.625 465.625V444.844L333.781 435H321.75C320.59 435 319.477 435.461 318.656 436.281C317.836 437.102 317.375 438.215 317.375 439.375V465.625C317.375 466.785 317.836 467.898 318.656 468.719C319.477 469.539 320.59 470 321.75 470H339.25C340.41 470 341.523 469.539 342.344 468.719C343.164 467.898 343.625 466.785 343.625 465.625ZM333.781 441.562C333.781 442.433 334.127 443.267 334.742 443.883C335.358 444.498 336.192 444.844 337.062 444.844H341.438V465.625C341.438 466.205 341.207 466.762 340.797 467.172C340.387 467.582 339.83 467.812 339.25 467.812H321.75C321.17 467.812 320.613 467.582 320.203 467.172C319.793 466.762 319.562 466.205 319.562 465.625V439.375C319.562 438.795 319.793 438.238 320.203 437.828C320.613 437.418 321.17 437.188 321.75 437.188H333.781V441.562Z" fill="#676767"/>
<path d="M943.937 481.406C943.937 480.826 944.168 480.27 944.578 479.859C944.988 479.449 945.545 479.219 946.125 479.219H948.312C948.893 479.219 949.449 479.449 949.859 479.859C950.27 480.27 950.5 480.826 950.5 481.406V483.458L951.375 486.956C951.484 487.394 951.455 487.854 951.292 488.275C951.129 488.695 950.84 489.055 950.465 489.305L948.431 490.662C948.071 490.901 947.649 491.029 947.217 491.029C946.784 491.029 946.362 490.901 946.002 490.662L943.97 489.305C943.595 489.055 943.307 488.695 943.144 488.274C942.982 487.854 942.953 487.393 943.062 486.956L943.937 483.458V481.406ZM948.312 481.406H946.125V483.458C946.125 483.637 946.103 483.816 946.059 483.99L945.184 487.485L947.219 488.842L949.251 487.485L948.376 483.99C948.333 483.816 948.312 483.637 948.312 483.458V481.406Z" fill="#676767"/>
<path d="M963.625 474.844V495.625C963.625 496.785 963.164 497.898 962.344 498.719C961.523 499.539 960.41 500 959.25 500H941.75C940.59 500 939.477 499.539 938.656 498.719C937.836 497.898 937.375 496.785 937.375 495.625V469.375C937.375 468.215 937.836 467.102 938.656 466.281C939.477 465.461 940.59 465 941.75 465H953.781L963.625 474.844ZM957.062 474.844C956.192 474.844 955.358 474.498 954.742 473.883C954.127 473.267 953.781 472.433 953.781 471.562V467.188H949.406V469.375H947.219V471.562H949.406V473.75H947.219V475.938H949.406V478.125H946.125V475.938H943.938V473.75H946.125V471.562H943.938V469.375H946.125V467.188H941.75C941.17 467.188 940.613 467.418 940.203 467.828C939.793 468.238 939.562 468.795 939.562 469.375V495.625C939.562 496.205 939.793 496.762 940.203 497.172C940.613 497.582 941.17 497.812 941.75 497.812H959.25C959.83 497.812 960.387 497.582 960.797 497.172C961.207 496.762 961.438 496.205 961.438 495.625V474.844H957.062Z" fill="#676767"/>
<g clip-path="url(#clip1_16_36)">
<path fill-rule="evenodd" clip-rule="evenodd" d="M933.625 650.844V671.625C933.625 672.785 933.164 673.898 932.344 674.719C931.523 675.539 930.41 676 929.25 676V673.812C929.83 673.812 930.387 673.582 930.797 673.172C931.207 672.762 931.438 672.205 931.438 671.625V650.844H927.063C926.192 650.844 925.358 650.498 924.742 649.883C924.127 649.267 923.781 648.433 923.781 647.562V643.187H911.75C911.17 643.187 910.613 643.418 910.203 643.828C909.793 644.238 909.563 644.795 909.563 645.375V665.062H907.375V645.375C907.375 644.215 907.836 643.102 908.656 642.281C909.477 641.461 910.59 641 911.75 641H923.781L933.625 650.844ZM920.92 669.556C920.758 669.999 920.681 670.469 920.695 670.94V672.023C920.695 672.561 920.77 673.018 920.92 673.395C921.046 673.741 921.274 674.041 921.574 674.254C921.886 674.451 922.249 674.551 922.618 674.541C922.922 674.546 923.223 674.48 923.497 674.348C923.74 674.224 923.945 674.037 924.092 673.806C924.24 673.565 924.328 673.292 924.348 673.01H926.021V673.176C926 673.704 925.829 674.216 925.527 674.65C925.229 675.073 924.828 675.404 924.324 675.643C923.786 675.891 923.199 676.013 922.607 676.002C921.819 676.002 921.152 675.845 920.605 675.53C920.058 675.212 919.622 674.733 919.358 674.158C919.074 673.563 918.932 672.851 918.934 672.023V670.934C918.934 670.105 919.077 669.392 919.363 668.794C919.647 668.195 920.063 667.733 920.612 667.41C921.163 667.084 921.828 666.922 922.607 666.922C923.083 666.922 923.525 666.993 923.932 667.134C924.341 667.27 924.698 667.468 925.004 667.729C925.31 667.991 925.559 668.314 925.734 668.677C925.909 669.04 926.007 669.435 926.021 669.838V669.997H924.348C924.327 669.704 924.237 669.419 924.085 669.166C923.943 668.925 923.737 668.728 923.49 668.595C923.223 668.45 922.922 668.377 922.618 668.383C922.249 668.372 921.886 668.478 921.581 668.685C921.28 668.904 921.05 669.207 920.92 669.556ZM904.75 675.836L905.435 673.587H908.359L909.046 675.836H910.884L907.963 667.088H905.938L903.002 675.838L904.75 675.836ZM906.942 668.762L908.012 672.299H905.793L906.865 668.762H906.942ZM912.695 675.836L913.38 673.587H916.3L916.985 675.836H918.824L915.906 667.088H913.881L910.947 675.838L912.695 675.836ZM914.885 668.762L915.957 672.299H913.738L914.81 668.762H914.885Z" fill="#676767"/>
</g>
<g clip-path="url(#clip2_16_36)">
<path fill-rule="evenodd" clip-rule="evenodd" d="M407.626 230.844V251.625C407.626 252.785 407.165 253.898 406.344 254.719C405.524 255.539 404.411 256 403.251 256H396.688V253.812H403.251C403.831 253.812 404.387 253.582 404.798 253.172C405.208 252.762 405.438 252.205 405.438 251.625V230.844H401.063C400.193 230.844 399.359 230.498 398.743 229.883C398.128 229.267 397.782 228.433 397.782 227.562V223.188H385.751C385.171 223.188 384.614 223.418 384.204 223.828C383.794 224.238 383.563 224.795 383.563 225.375V245.062H381.376V225.375C381.376 224.215 381.837 223.102 382.657 222.281C383.478 221.461 384.591 221 385.751 221H397.782L407.626 230.844ZM384.172 249.709C384.136 249.334 384.033 248.969 383.865 248.632C383.698 248.293 383.464 247.99 383.178 247.742C382.869 247.478 382.513 247.274 382.128 247.141C381.68 246.989 381.21 246.915 380.737 246.922C379.947 246.922 379.272 247.089 378.712 247.423C378.161 247.749 377.717 248.23 377.436 248.805C377.131 249.455 376.982 250.166 377.001 250.883V251.99C377.001 252.585 377.077 253.129 377.231 253.62C377.384 254.11 377.617 254.533 377.931 254.889C378.241 255.243 378.63 255.518 379.097 255.713C379.568 255.906 380.117 256.002 380.744 256.002C381.33 256.002 381.838 255.921 382.268 255.759C382.662 255.623 383.021 255.402 383.319 255.11C383.617 254.819 383.847 254.466 383.992 254.075C384.134 253.694 384.204 253.293 384.204 252.87V251.126H380.757V252.415H382.557V252.973C382.557 253.263 382.492 253.527 382.36 253.767C382.221 254.013 382.014 254.213 381.763 254.344C381.451 254.492 381.109 254.564 380.763 254.554C380.361 254.571 379.963 254.459 379.628 254.235C379.323 254.005 379.091 253.691 378.961 253.331C378.813 252.898 378.742 252.443 378.751 251.986V250.894C378.751 250.097 378.922 249.477 379.263 249.035C379.608 248.597 380.093 248.378 380.717 248.377C380.94 248.375 381.161 248.408 381.374 248.473C381.572 248.537 381.744 248.629 381.89 248.748C382.038 248.863 382.164 249.004 382.262 249.164C382.363 249.333 382.435 249.518 382.474 249.711L384.172 249.709ZM387.131 255.836V247.088H385.401V255.838H387.129L387.131 255.836ZM390.397 252.358V255.836H388.667V247.088H394.238V248.517H390.397V250.96H393.908V252.356L390.397 252.358Z" fill="#676767"/>
</g>
<path fill-rule="evenodd" clip-rule="evenodd" d="M1060.62 116.844V137.625C1060.62 138.785 1060.16 139.898 1059.34 140.719C1058.52 141.539 1057.41 142 1056.25 142H1054.06V139.812H1056.25C1056.83 139.812 1057.39 139.582 1057.8 139.172C1058.21 138.762 1058.44 138.205 1058.44 137.625V116.844H1054.06C1053.19 116.844 1052.36 116.498 1051.74 115.883C1051.13 115.267 1050.78 114.433 1050.78 113.562V109.188H1038.75C1038.17 109.188 1037.61 109.418 1037.2 109.828C1036.79 110.238 1036.56 110.795 1036.56 111.375V131.062H1034.38V111.375C1034.38 110.215 1034.84 109.102 1035.66 108.281C1036.48 107.461 1037.59 107 1038.75 107H1050.78L1060.62 116.844ZM1035.63 140.254H1031.72V137.907H1035.4V136.582H1031.72V134.339H1035.63V132.922H1030V141.67H1035.63V140.254ZM1043.8 132.922H1041.85L1040.05 136.07H1039.97L1038.15 132.922H1036.11L1038.8 137.26L1036.09 141.67H1037.97L1039.84 138.574H1039.91L1041.77 141.67H1043.76L1041.02 137.312L1043.8 132.922ZM1046.05 140.254H1049.96V141.67H1044.32V132.922H1049.96V134.339H1046.04V136.582H1049.73V137.907H1046.04L1046.05 140.254Z" fill="#676767"/>
<g clip-path="url(#clip3_16_36)">
<path d="M13.1294 42.0312C13.1294 42.9015 12.7837 43.7361 12.1683 44.3514C11.553 44.9668 10.7184 45.3125 9.84814 45.3125C8.9779 45.3125 8.1433 44.9668 7.52795 44.3514C6.9126 43.7361 6.56689 42.9015 6.56689 42.0312C6.56689 41.161 6.9126 40.3264 7.52795 39.7111C8.1433 39.0957 8.9779 38.75 9.84814 38.75C10.7184 38.75 11.553 39.0957 12.1683 39.7111C12.7837 40.3264 13.1294 41.161 13.1294 42.0312Z" fill="#676767"/>
<path d="M3.28125 34.375C2.41101 34.375 1.57641 34.7207 0.961056 35.3361C0.345702 35.9514 0 36.786 0 37.6562L0 57.3438C0 58.214 0.345702 59.0486 0.961056 59.6639C1.57641 60.2793 2.41101 60.625 3.28125 60.625H31.7188C32.589 60.625 33.4236 60.2793 34.0389 59.6639C34.6543 59.0486 35 58.214 35 57.3438V37.6562C35 36.786 34.6543 35.9514 34.0389 35.3361C33.4236 34.7207 32.589 34.375 31.7188 34.375H3.28125ZM31.7188 36.5625C32.0088 36.5625 32.287 36.6777 32.4921 36.8829C32.6973 37.088 32.8125 37.3662 32.8125 37.6562V50.7812L24.5547 46.5222C24.3495 46.4194 24.1173 46.3838 23.8908 46.4203C23.6643 46.4568 23.455 46.5636 23.2925 46.7256L15.1769 54.8412L9.35812 50.965C9.14804 50.8251 8.89604 50.7622 8.64487 50.7869C8.39369 50.8117 8.15879 50.9225 7.98 51.1006L2.19187 56.25V57.4312L2.1875 57.3438V37.6562C2.1875 37.3662 2.30273 37.088 2.50785 36.8829C2.71297 36.6777 2.99117 36.5625 3.28125 36.5625H31.7188Z" fill="#676767"/>
</g>
<path d="M510.75 38H522.328C522.909 38.0001 523.465 38.2307 523.875 38.6409L531.984 46.75C532.394 47.1601 532.625 47.7164 532.625 48.2966V60.5159L526.653 54.5441C526.428 54.3199 526.157 54.1473 525.859 54.0383C525.561 53.9294 525.243 53.8866 524.926 53.9131C524.61 53.9395 524.303 54.0345 524.027 54.1914C523.751 54.3484 523.513 54.5635 523.328 54.8219L519.196 60.6056L515.326 58.2825C514.908 58.0312 514.418 57.927 513.933 57.9864C513.449 58.0459 512.998 58.2656 512.653 58.6106L506.375 64.8887V42.375C506.375 41.2147 506.836 40.1019 507.656 39.2814C508.477 38.4609 509.59 38 510.75 38ZM522.781 41.2812V45.6562C522.781 46.2364 523.012 46.7928 523.422 47.203C523.832 47.6133 524.389 47.8438 524.969 47.8438H529.344L522.781 41.2812ZM519.504 50.0312C519.504 49.161 519.159 48.3264 518.543 47.7111C517.928 47.0957 517.093 46.75 516.223 46.75C515.353 46.75 514.518 47.0957 513.903 47.7111C513.288 48.3264 512.942 49.161 512.942 50.0312C512.942 50.9015 513.288 51.7361 513.903 52.3514C514.518 52.9668 515.353 53.3125 516.223 53.3125C517.093 53.3125 517.928 52.9668 518.543 52.3514C519.159 51.7361 519.504 50.9015 519.504 50.0312Z" fill="#676767"/>
<path d="M525.109 56.0906L532.625 63.6112V68.625C532.625 69.7853 532.164 70.8981 531.344 71.7186C530.523 72.5391 529.41 73 528.25 73H510.75C509.59 73 508.477 72.5391 507.656 71.7186C506.836 70.8981 506.375 69.7853 506.375 68.625V67.9841L514.202 60.1594L519.802 63.5194L525.109 56.0906Z" fill="#676767"/>
<path d="M623.625 341.625V320.844L613.781 311H601.75C600.59 311 599.477 311.461 598.656 312.281C597.836 313.102 597.375 314.215 597.375 315.375V341.625C597.375 342.785 597.836 343.898 598.656 344.719C599.477 345.539 600.59 346 601.75 346H619.25C620.41 346 621.523 345.539 622.344 344.719C623.164 343.898 623.625 342.785 623.625 341.625ZM613.781 317.562C613.781 318.433 614.127 319.267 614.742 319.883C615.358 320.498 616.192 320.844 617.062 320.844H621.438V341.625C621.438 342.205 621.207 342.762 620.797 343.172C620.387 343.582 619.83 343.812 619.25 343.812H601.75C601.17 343.812 600.613 343.582 600.203 343.172C599.793 342.762 599.562 342.205 599.562 341.625V315.375C599.562 314.795 599.793 314.238 600.203 313.828C600.613 313.418 601.17 313.188 601.75 313.188H613.781V317.562Z" fill="#676767"/>
<path d="M603.069 341.815C602.641 341.647 602.297 341.317 602.111 340.897C601.684 340.048 601.827 339.199 602.286 338.486C602.719 337.814 603.437 337.243 604.248 336.764C605.276 336.182 606.363 335.709 607.49 335.353C608.364 333.779 609.14 332.152 609.813 330.482C609.412 329.569 609.097 328.621 608.872 327.649C608.684 326.774 608.612 325.908 608.772 325.164C608.936 324.39 609.371 323.694 610.194 323.364C610.614 323.195 611.069 323.101 611.511 323.195C611.733 323.243 611.942 323.339 612.122 323.477C612.303 323.615 612.45 323.792 612.554 323.994C612.747 324.352 612.817 324.772 612.832 325.171C612.847 325.582 612.806 326.037 612.729 326.514C612.545 327.629 612.138 328.994 611.592 330.438C612.196 331.729 612.913 332.963 613.735 334.126C614.709 334.05 615.688 334.087 616.653 334.236C617.45 334.38 618.259 334.662 618.753 335.253C619.016 335.568 619.176 335.953 619.191 336.386C619.206 336.806 619.088 337.222 618.889 337.617C618.717 337.984 618.449 338.299 618.115 338.527C617.784 338.743 617.393 338.848 616.999 338.829C616.275 338.799 615.568 338.401 614.958 337.917C614.216 337.304 613.547 336.606 612.965 335.839C611.486 336.007 610.024 336.305 608.597 336.727C607.943 337.886 607.197 338.991 606.366 340.03C605.727 340.796 605.033 341.465 604.338 341.752C603.938 341.931 603.485 341.954 603.069 341.815ZM606.086 337.657C605.721 337.825 605.386 337.998 605.082 338.177C604.364 338.602 603.898 339.015 603.666 339.374C603.461 339.691 603.456 339.921 603.579 340.164C603.602 340.21 603.621 340.242 603.636 340.26L603.712 340.234C604.012 340.111 604.489 339.72 605.101 338.982C605.45 338.556 605.779 338.114 606.086 337.657ZM609.673 334.747C610.404 334.578 611.141 334.437 611.882 334.325C611.485 333.715 611.113 333.089 610.767 332.448C610.424 333.224 610.059 333.99 609.673 334.745V334.747ZM615.024 335.732C615.353 336.089 615.67 336.388 615.975 336.629C616.5 337.044 616.866 337.182 617.065 337.189C617.118 337.197 617.173 337.185 617.218 337.156C617.309 337.085 617.38 336.99 617.423 336.882C617.501 336.749 617.545 336.599 617.552 336.445C617.55 336.394 617.53 336.345 617.496 336.307C617.382 336.172 617.058 335.975 616.362 335.85C615.92 335.777 615.472 335.738 615.024 335.734V335.732ZM610.671 328.062C610.853 327.468 610.999 326.863 611.108 326.251C611.175 325.84 611.203 325.501 611.191 325.234C611.192 325.087 611.169 324.94 611.121 324.801C611.012 324.814 610.905 324.843 610.804 324.888C610.614 324.965 610.458 325.12 610.375 325.507C610.288 325.927 610.31 326.533 610.476 327.306C610.528 327.549 610.594 327.801 610.673 328.062H610.671Z" fill="#676767"/>
<path d="M148.062 529.525C148.062 529.192 147.987 528.864 147.841 528.566C147.695 528.267 147.483 528.005 147.221 527.801C146.959 527.596 146.653 527.454 146.328 527.385C146.003 527.316 145.666 527.322 145.343 527.403L143.156 527.95C142.683 528.068 142.263 528.342 141.963 528.726C141.663 529.111 141.5 529.584 141.5 530.072V539.491C140.806 539.205 140.063 539.06 139.312 539.062C138.219 539.062 137.182 539.356 136.386 539.887C135.598 540.412 134.938 541.261 134.938 542.344C134.938 543.427 135.596 544.275 136.386 544.8C137.182 545.332 138.221 545.625 139.312 545.625C140.404 545.625 141.443 545.332 142.239 544.8C143.027 544.275 143.688 543.427 143.688 542.344V534.447L148.062 533.353V529.525Z" fill="#676767"/>
<path d="M154.625 545.625V524.844L144.781 515H132.75C131.59 515 130.477 515.461 129.656 516.281C128.836 517.102 128.375 518.215 128.375 519.375V545.625C128.375 546.785 128.836 547.898 129.656 548.719C130.477 549.539 131.59 550 132.75 550H150.25C151.41 550 152.523 549.539 153.344 548.719C154.164 547.898 154.625 546.785 154.625 545.625ZM144.781 521.562C144.781 522.433 145.127 523.267 145.742 523.883C146.358 524.498 147.192 524.844 148.062 524.844H152.438V545.625C152.438 546.205 152.207 546.762 151.797 547.172C151.387 547.582 150.83 547.812 150.25 547.812H132.75C132.17 547.812 131.613 547.582 131.203 547.172C130.793 546.762 130.562 546.205 130.562 545.625V519.375C130.562 518.795 130.793 518.238 131.203 517.828C131.613 517.418 132.17 517.188 132.75 517.188H144.781V521.562Z" fill="#676767"/>
<path d="M580.125 518.057V527.318C580.125 527.512 580.176 527.702 580.274 527.869C580.371 528.036 580.511 528.175 580.679 528.27C580.848 528.366 581.039 528.415 581.232 528.412C581.426 528.41 581.615 528.356 581.781 528.257L589.498 523.626C589.661 523.529 589.795 523.391 589.888 523.227C589.981 523.062 590.03 522.877 590.03 522.688C590.03 522.498 589.981 522.313 589.888 522.148C589.795 521.984 589.661 521.846 589.498 521.749L581.781 517.118C581.615 517.019 581.425 516.965 581.231 516.963C581.038 516.96 580.847 517.01 580.679 517.105C580.51 517.201 580.37 517.34 580.273 517.507C580.176 517.675 580.125 517.863 580.125 518.057Z" fill="#676767"/>
<path d="M597.625 533.625V512.844L587.781 503H575.75C574.59 503 573.477 503.461 572.656 504.281C571.836 505.102 571.375 506.215 571.375 507.375V533.625C571.375 534.785 571.836 535.898 572.656 536.719C573.477 537.539 574.59 538 575.75 538H593.25C594.41 538 595.523 537.539 596.344 536.719C597.164 535.898 597.625 534.785 597.625 533.625ZM587.781 509.562C587.781 510.433 588.127 511.267 588.742 511.883C589.358 512.498 590.192 512.844 591.062 512.844H595.438V533.625C595.438 534.205 595.207 534.762 594.797 535.172C594.387 535.582 593.83 535.812 593.25 535.812H575.75C575.17 535.812 574.613 535.582 574.203 535.172C573.793 534.762 573.562 534.205 573.562 533.625V507.375C573.562 506.795 573.793 506.238 574.203 505.828C574.613 505.418 575.17 505.188 575.75 505.188H587.781V509.562Z" fill="#676767"/>
<path d="M332.998 41.0478C332.966 40.9056 332.906 40.7712 332.822 40.6526C332.737 40.5339 332.629 40.4334 332.505 40.3569C332.381 40.2804 332.243 40.2295 332.099 40.2071C331.955 40.1848 331.808 40.1914 331.667 40.2267C331.525 40.262 331.392 40.3252 331.276 40.4126C331.159 40.5 331.061 40.6098 330.987 40.7356C330.914 40.8615 330.866 41.0007 330.847 41.1452C330.828 41.2898 330.838 41.4366 330.877 41.5772L334.158 54.7022C334.217 54.9364 334.352 55.1446 334.542 55.294C334.732 55.4435 334.965 55.5259 335.207 55.5284C335.449 55.5309 335.684 55.4533 335.877 55.3078C336.07 55.1623 336.209 54.9571 336.273 54.7241L338.5 46.5669L340.727 54.7263C340.791 54.9592 340.93 55.1645 341.123 55.31C341.316 55.4555 341.551 55.5331 341.793 55.5306C342.035 55.5281 342.269 55.4457 342.458 55.2962C342.648 55.1467 342.783 54.9386 342.842 54.7044L346.123 41.5794C346.186 41.3007 346.137 41.0084 345.987 40.7653C345.837 40.5221 345.598 40.3472 345.321 40.278C345.044 40.2089 344.751 40.2509 344.504 40.3952C344.258 40.5395 344.077 40.7745 344.002 41.05L341.735 50.115L339.554 42.1197C339.491 41.8889 339.353 41.6854 339.163 41.5404C338.972 41.3953 338.739 41.3168 338.5 41.3168C338.261 41.3168 338.028 41.3953 337.837 41.5404C337.647 41.6854 337.509 41.8889 337.446 42.1197L335.265 50.115L332.998 41.0478Z" fill="#676767"/>
<path d="M351.625 56.625V35.8438L341.781 26H329.75C328.59 26 327.477 26.4609 326.656 27.2814C325.836 28.1019 325.375 29.2147 325.375 30.375V56.625C325.375 57.7853 325.836 58.8981 326.656 59.7186C327.477 60.5391 328.59 61 329.75 61H347.25C348.41 61 349.523 60.5391 350.344 59.7186C351.164 58.8981 351.625 57.7853 351.625 56.625ZM341.781 32.5625C341.781 33.4327 342.127 34.2673 342.742 34.8827C343.358 35.498 344.192 35.8438 345.062 35.8438H349.438V56.625C349.438 57.2052 349.207 57.7616 348.797 58.1718C348.387 58.582 347.83 58.8125 347.25 58.8125H329.75C329.17 58.8125 328.613 58.582 328.203 58.1718C327.793 57.7616 327.562 57.2052 327.562 56.625V30.375C327.562 29.7948 327.793 29.2384 328.203 28.8282C328.613 28.418 329.17 28.1875 329.75 28.1875H341.781V32.5625Z" fill="#676767"/>
<path d="M736.937 138.406C736.937 137.826 737.168 137.27 737.578 136.859C737.988 136.449 738.545 136.219 739.125 136.219H741.312C741.893 136.219 742.449 136.449 742.859 136.859C743.27 137.27 743.5 137.826 743.5 138.406V140.458L744.375 143.956C744.484 144.394 744.455 144.854 744.292 145.275C744.129 145.695 743.84 146.055 743.465 146.305L741.431 147.662C741.071 147.901 740.649 148.029 740.217 148.029C739.784 148.029 739.362 147.901 739.002 147.662L736.97 146.305C736.595 146.055 736.307 145.695 736.144 145.274C735.982 144.854 735.953 144.393 736.062 143.956L736.937 140.458V138.406ZM741.312 138.406H739.125V140.458C739.125 140.637 739.103 140.816 739.059 140.99L738.184 144.485L740.219 145.842L742.251 144.485L741.376 140.99C741.333 140.816 741.312 140.637 741.312 140.458V138.406Z" fill="#676767"/>
<path d="M756.625 131.844V152.625C756.625 153.785 756.164 154.898 755.344 155.719C754.523 156.539 753.41 157 752.25 157H734.75C733.59 157 732.477 156.539 731.656 155.719C730.836 154.898 730.375 153.785 730.375 152.625V126.375C730.375 125.215 730.836 124.102 731.656 123.281C732.477 122.461 733.59 122 734.75 122H746.781L756.625 131.844ZM750.062 131.844C749.192 131.844 748.358 131.498 747.742 130.883C747.127 130.267 746.781 129.433 746.781 128.562V124.188H742.406V126.375H740.219V128.562H742.406V130.75H740.219V132.938H742.406V135.125H739.125V132.938H736.938V130.75H739.125V128.562H736.938V126.375H739.125V124.188H734.75C734.17 124.188 733.613 124.418 733.203 124.828C732.793 125.238 732.562 125.795 732.562 126.375V152.625C732.562 153.205 732.793 153.762 733.203 154.172C733.613 154.582 734.17 154.812 734.75 154.812H752.25C752.83 154.812 753.387 154.582 753.797 154.172C754.207 153.762 754.438 153.205 754.438 152.625V131.844H750.062Z" fill="#676767"/>
<g clip-path="url(#clip4_16_36)">
<path fill-rule="evenodd" clip-rule="evenodd" d="M913.625 16.8437V37.625C913.625 38.7853 913.164 39.8981 912.344 40.7186C911.523 41.5391 910.41 42 909.25 42V39.8125C909.83 39.8125 910.387 39.582 910.797 39.1718C911.207 38.7616 911.438 38.2052 911.438 37.625V16.8437H907.063C906.192 16.8437 905.358 16.498 904.742 15.8827C904.127 15.2673 903.781 14.4327 903.781 13.5625V9.1875H891.75C891.17 9.1875 890.613 9.41797 890.203 9.8282C889.793 10.2384 889.563 10.7948 889.563 11.375V31.0625H887.375V11.375C887.375 10.2147 887.836 9.10188 888.656 8.28141C889.477 7.46094 890.59 7 891.75 7H903.781L913.625 16.8437ZM900.92 35.5556C900.758 35.9987 900.681 36.4686 900.695 36.9403V38.0231C900.695 38.5612 900.77 39.0184 900.92 39.3947C901.046 39.741 901.274 40.0408 901.574 40.2544C901.886 40.4512 902.249 40.551 902.618 40.5409C902.922 40.5455 903.223 40.4797 903.497 40.3484C903.74 40.2239 903.945 40.0366 904.092 39.8059C904.24 39.5651 904.328 39.2919 904.348 39.0097H906.021V39.1759C906 39.7044 905.829 40.2159 905.527 40.6503C905.229 41.0732 904.828 41.4043 904.324 41.6434C903.786 41.8906 903.199 42.0133 902.607 42.0022C901.819 42.0022 901.152 41.8447 900.605 41.5297C900.058 41.2123 899.622 40.7331 899.358 40.1581C899.074 39.5631 898.932 38.8515 898.934 38.0231V36.9337C898.934 36.1054 899.077 35.3923 899.363 34.7944C899.647 34.195 900.063 33.7334 900.612 33.4097C901.163 33.0845 901.828 32.9219 902.607 32.9219C903.083 32.9219 903.525 32.9926 903.932 33.1341C904.341 33.2697 904.698 33.468 905.004 33.7291C905.31 33.9909 905.559 34.3136 905.734 34.6766C905.909 35.0396 906.007 35.435 906.021 35.8378V35.9975H904.348C904.327 35.7035 904.237 35.4186 904.085 35.1662C903.943 34.9251 903.737 34.7276 903.49 34.5953C903.223 34.4498 902.922 34.3767 902.618 34.3831C902.249 34.3719 901.886 34.4776 901.581 34.685C901.28 34.9044 901.05 35.2071 900.92 35.5556ZM884.75 41.8359L885.435 39.5872H888.359L889.046 41.8359H890.884L887.963 33.0881H885.938L883.002 41.8381L884.75 41.8359ZM886.942 34.7616L888.012 38.2987H885.793L886.865 34.7616H886.942ZM892.695 41.8359L893.38 39.5872H896.3L896.985 41.8359H898.824L895.906 33.0881H893.881L890.947 41.8381L892.695 41.8359ZM894.885 34.7616L895.957 38.2987H893.738L894.81 34.7616H894.885Z" fill="#676767"/>
</g>
<g clip-path="url(#clip5_16_36)">
<path fill-rule="evenodd" clip-rule="evenodd" d="M381.626 714.844V735.625C381.626 736.785 381.165 737.898 380.344 738.719C379.524 739.539 378.411 740 377.251 740H370.688V737.812H377.251C377.831 737.812 378.387 737.582 378.798 737.172C379.208 736.762 379.438 736.205 379.438 735.625V714.844H375.063C374.193 714.844 373.359 714.498 372.743 713.883C372.128 713.267 371.782 712.433 371.782 711.562V707.188H359.751C359.171 707.188 358.614 707.418 358.204 707.828C357.794 708.238 357.563 708.795 357.563 709.375V729.062H355.376V709.375C355.376 708.215 355.837 707.102 356.657 706.281C357.478 705.461 358.591 705 359.751 705H371.782L381.626 714.844ZM358.172 733.709C358.136 733.334 358.033 732.969 357.865 732.632C357.698 732.293 357.464 731.99 357.178 731.742C356.869 731.478 356.513 731.274 356.128 731.141C355.68 730.989 355.21 730.915 354.737 730.922C353.947 730.922 353.272 731.089 352.712 731.423C352.161 731.749 351.717 732.23 351.436 732.805C351.131 733.455 350.982 734.166 351.001 734.883V735.99C351.001 736.585 351.077 737.129 351.231 737.62C351.384 738.11 351.617 738.533 351.931 738.889C352.241 739.243 352.63 739.518 353.097 739.713C353.568 739.906 354.117 740.002 354.744 740.002C355.33 740.002 355.838 739.921 356.268 739.759C356.662 739.623 357.021 739.402 357.319 739.11C357.617 738.819 357.847 738.466 357.992 738.075C358.134 737.694 358.204 737.293 358.204 736.87V735.126H354.757V736.415H356.557V736.973C356.557 737.263 356.492 737.527 356.36 737.767C356.221 738.013 356.014 738.213 355.763 738.344C355.451 738.492 355.109 738.564 354.763 738.554C354.361 738.571 353.963 738.459 353.628 738.235C353.323 738.005 353.091 737.691 352.961 737.331C352.813 736.898 352.742 736.443 352.751 735.986V734.894C352.751 734.097 352.922 733.477 353.263 733.035C353.608 732.597 354.093 732.378 354.717 732.377C354.94 732.375 355.161 732.408 355.374 732.473C355.572 732.537 355.744 732.629 355.89 732.748C356.038 732.863 356.164 733.004 356.262 733.164C356.363 733.333 356.435 733.518 356.474 733.711L358.172 733.709ZM361.131 739.836V731.088H359.401V739.838H361.129L361.131 739.836ZM364.397 736.358V739.836H362.667V731.088H368.238V732.517H364.397V734.96H367.908V736.356L364.397 736.358Z" fill="#676767"/>
</g>
<g clip-path="url(#clip6_16_36)">
<path fill-rule="evenodd" clip-rule="evenodd" d="M1114.63 9.84375V30.625C1114.63 31.7853 1114.16 32.8981 1113.34 33.7186C1112.52 34.5391 1111.41 35 1110.25 35H1103.69V32.8125H1110.25C1110.83 32.8125 1111.39 32.582 1111.8 32.1718C1112.21 31.7616 1112.44 31.2052 1112.44 30.625V9.84375H1108.06C1107.19 9.84375 1106.36 9.49805 1105.74 8.88269C1105.13 8.26734 1104.78 7.43274 1104.78 6.5625V2.1875H1092.75C1092.17 2.1875 1091.61 2.41797 1091.2 2.8282C1090.79 3.23844 1090.56 3.79484 1090.56 4.375V24.0625H1088.38V4.375C1088.38 3.21468 1088.84 2.10188 1089.66 1.28141C1090.48 0.460936 1091.59 0 1092.75 0L1104.78 0L1114.63 9.84375ZM1091.17 28.7087C1091.14 28.3342 1091.03 27.9694 1090.87 27.6325C1090.7 27.293 1090.46 26.9903 1090.18 26.7422C1089.87 26.4783 1089.51 26.2743 1089.13 26.1406C1088.68 25.9891 1088.21 25.9151 1087.74 25.9219C1086.95 25.9219 1086.27 26.0889 1085.71 26.4228C1085.16 26.7493 1084.72 27.2299 1084.44 27.8053C1084.13 28.4545 1083.98 29.1662 1084 29.8834V30.9903C1084 31.5853 1084.08 32.1285 1084.23 32.62C1084.38 33.11 1084.62 33.5329 1084.93 33.8887C1085.24 34.2431 1085.63 34.518 1086.1 34.7134C1086.57 34.9059 1087.12 35.0022 1087.74 35.0022C1088.33 35.0022 1088.84 34.9213 1089.27 34.7594C1089.66 34.6233 1090.02 34.4017 1090.32 34.1105C1090.62 33.8192 1090.85 33.4656 1090.99 33.075C1091.13 32.6944 1091.2 32.2926 1091.2 31.8697V30.1263H1087.76V31.4147H1089.56V31.9725C1089.56 32.2627 1089.49 32.5274 1089.36 32.7666C1089.22 33.0126 1089.01 33.2132 1088.76 33.3441C1088.45 33.492 1088.11 33.5639 1087.76 33.5541C1087.36 33.5705 1086.96 33.4587 1086.63 33.2347C1086.32 33.0047 1086.09 32.6908 1085.96 32.3312C1085.81 31.8984 1085.74 31.4432 1085.75 30.9859V29.8944C1085.75 29.0967 1085.92 28.4769 1086.26 28.035C1086.61 27.5975 1087.09 27.378 1087.72 27.3766C1087.94 27.3751 1088.16 27.4076 1088.37 27.4728C1088.57 27.537 1088.74 27.6289 1088.89 27.7484C1089.04 27.863 1089.16 28.0039 1089.26 28.1641C1089.36 28.3331 1089.43 28.518 1089.47 28.7109L1091.17 28.7087ZM1094.13 34.8359V26.0881H1092.4V34.8381H1094.13L1094.13 34.8359ZM1097.4 31.3578V34.8359H1095.67V26.0881H1101.24V27.5166H1097.4V29.96H1100.91V31.3556L1097.4 31.3578Z" fill="#676767"/>
</g>
<path fill-rule="evenodd" clip-rule="evenodd" d="M631.625 650.844V671.625C631.625 672.785 631.164 673.898 630.344 674.719C629.523 675.539 628.41 676 627.25 676H625.062V673.812H627.25C627.83 673.812 628.387 673.582 628.797 673.172C629.207 672.762 629.438 672.205 629.438 671.625V650.844H625.062C624.192 650.844 623.358 650.498 622.742 649.883C622.127 649.267 621.781 648.433 621.781 647.562V643.188H609.75C609.17 643.188 608.613 643.418 608.203 643.828C607.793 644.238 607.562 644.795 607.562 645.375V665.062H605.375V645.375C605.375 644.215 605.836 643.102 606.656 642.281C607.477 641.461 608.59 641 609.75 641H621.781L631.625 650.844ZM606.633 674.254H602.717V671.907H606.403V670.582H602.717V668.339H606.633V666.922H601V675.67H606.633V674.254ZM614.803 666.922H612.85L611.049 670.07H610.971L609.151 666.922H607.114L609.798 671.26L607.088 675.67H608.971L610.837 672.574H610.914L612.773 675.67H614.759L612.016 671.312L614.803 666.922ZM617.045 674.254H620.961V675.67H615.324V666.922H620.959V668.339H617.043V670.582H620.727V671.907H617.043L617.045 674.254Z" fill="#676767"/>
<defs>
<clipPath id="clip0_16_36">
<rect width="35" height="35" fill="white" transform="translate(1110 706)"/>
</clipPath>
<clipPath id="clip1_16_36">
<rect width="35" height="35" fill="white" transform="translate(903 641)"/>
</clipPath>
<clipPath id="clip2_16_36">
<rect width="35" height="35" fill="white" transform="translate(377 221)"/>
</clipPath>
<clipPath id="clip3_16_36">
<rect width="35" height="35" fill="white" transform="translate(0 30)"/>
</clipPath>
<clipPath id="clip4_16_36">
<rect width="35" height="35" fill="white" transform="translate(883 7)"/>
</clipPath>
<clipPath id="clip5_16_36">
<rect width="35" height="35" fill="white" transform="translate(351 705)"/>
</clipPath>
<clipPath id="clip6_16_36">
<rect width="35" height="35" fill="white" transform="translate(1084)"/>
</clipPath>
</defs>
</svg>
